<?xml version="1.0" encoding="UTF-8" standalone="no"?>
<svg
   width="108"
   height="108"
   viewBox="0 0 108 108"
   version="1.1"
   id="svg8"
   sodipodi:docname="launcher_icon.svg"
   inkscape:version="1.1 (c4e8f9ed74, 2021-05-24)"
   xmlns:inkscape="http://www.inkscape.org/namespaces/inkscape"
   xmlns:sodipodi="http://sodipodi.sourceforge.net/DTD/sodipodi-0.dtd"
   xmlns:xlink="http://www.w3.org/1999/xlink"
   xmlns="http://www.w3.org/2000/svg"
   xmlns:svg="http://www.w3.org/2000/svg"
   xmlns:rdf="http://www.w3.org/1999/02/22-rdf-syntax-ns#"
   xmlns:cc="http://creativecommons.org/ns#"
   xmlns:dc="http://purl.org/dc/elements/1.1/">
  <sodipodi:namedview
     id="base"
     pagecolor="#ffffff"
     bordercolor="#666666"
     borderopacity="1.0"
     inkscape:pageopacity="0.0"
     inkscape:pageshadow="2"
     inkscape:zoom="11.313709"
     inkscape:cx="55.596271"
     inkscape:cy="56.612737"
     inkscape:document-units="px"
     inkscape:current-layer="circle-clip-group"
     showgrid="false"
     units="px"
     inkscape:pagecheckerboard="false"
     showborder="true"
     inkscape:window-width="2560"
     inkscape:window-height="1371"
     inkscape:window-x="0"
     inkscape:window-y="32"
     inkscape:window-maximized="1"
     inkscape:snap-bbox="true"
     inkscape:bbox-paths="true"
     inkscape:bbox-nodes="true"
     inkscape:snap-bbox-edge-midpoints="true"
     inkscape:snap-bbox-midpoints="true"
     inkscape:object-paths="true"
     inkscape:snap-intersection-paths="true"
     inkscape:snap-smooth-nodes="true"
     inkscape:snap-midpoints="true"
     inkscape:snap-object-midpoints="true"
     inkscape:snap-center="true"
     inkscape:document-rotation="0" />
  <defs
     id="defs2">
    <linearGradient
       id="linearGradient874"
       inkscape:collect="always">
      <stop
         id="stop870"
         offset="0"
         style="stop-color:#ffffff;stop-opacity:0.1" />
      <stop
         style="stop-color:#ffffff;stop-opacity:0.05"
         offset="0.33333333"
         id="stop878" />
      <stop
         id="stop872"
         offset="1"
         style="stop-color:#ffffff;stop-opacity:0;" />
    </linearGradient>
    <radialGradient
       gradientUnits="userSpaceOnUse"
       r="72"
       fy="18"
       fx="18"
       cy="18"
       cx="18"
       id="radialGradient876"
       xlink:href="#linearGradient874"
       inkscape:collect="always" />
    <clipPath
       clipPathUnits="userSpaceOnUse"
       id="clipPath843">
      <circle
         r="36"
         cy="54"
         cx="54"
         id="circle845"
         style="opacity:1;fill:#ffffff;fill-opacity:1;fill-rule:nonzero;stroke:none;stroke-width:1.54617035;stroke-linecap:round;stroke-linejoin:miter;stroke-miterlimit:4;stroke-dasharray:none;stroke-opacity:1" />
    </clipPath>
    <filter
       height="1.301471"
       width="1.2494932"
       y="-0.12474661"
       x="-0.12474661"
       id="filter849"
       inkscape:label="Drop Shadow"
       style="color-interpolation-filters:sRGB;">
      <feFlood
         id="feFlood839"
         result="flood"
         flood-color="rgb(0,0,0)"
         flood-opacity="0.2" />
      <feComposite
         id="feComposite841"
         result="composite1"
         operator="in"
         in2="SourceGraphic"
         in="flood" />
      <feGaussianBlur
         id="feGaussianBlur843"
         result="blur"
         stdDeviation="2"
         in="composite1" />
      <feOffset
         id="feOffset845"
         result="offset"
         dy="2"
         dx="0" />
      <feComposite
         id="feComposite847"
         result="composite2"
         operator="over"
         in2="offset"
         in="SourceGraphic" />
    </filter>
    <filter
       style="color-interpolation-filters:sRGB;"
       inkscape:label="Drop Shadow"
       id="filter856"
       x="-0.033333333"
       y="-0.033333333"
       width="1.0666667"
       height="1.0805556">
      <feFlood
         flood-opacity="0.3"
         flood-color="rgb(0,0,0)"
         result="flood"
         id="feFlood845" />
      <feComposite
         in="flood"
         in2="SourceGraphic"
         operator="in"
         result="composite1"
         id="feComposite848" />
      <feGaussianBlur
         in="composite1"
         stdDeviation="1"
         result="blur"
         id="feGaussianBlur850" />
      <feOffset
         dx="0"
         dy="1"
         result="offset"
         id="feOffset852" />
      <feComposite
         in="SourceGraphic"
         in2="offset"
         operator="over"
         result="composite2"
         id="feComposite854" />
    </filter>
  </defs>
  <metadata
     id="metadata5">
    <rdf:RDF>
      <cc:Work
         rdf:about="">
        <dc:format>image/svg+xml</dc:format>
        <dc:type
           rdf:resource="http://purl.org/dc/dcmitype/StillImage" />
      </cc:Work>
    </rdf:RDF>
  </metadata>
  <g
     id="layer"
     inkscape:groupmode="layer"
     inkscape:label="Layer 1">
    <circle
       style="opacity:1;fill:#1a73e8;fill-opacity:1;fill-rule:nonzero;stroke:none;stroke-width:1.54617035;stroke-linecap:round;stroke-linejoin:miter;stroke-miterlimit:4;stroke-dasharray:none;stroke-opacity:1;filter:url(#filter856)"
       id="circle"
       cx="54"
       cy="54"
       r="36" />
    <path
       style="opacity:1;fill:#000000;fill-opacity:0.2;fill-rule:nonzero;stroke:none;stroke-width:1.54617035;stroke-linecap:round;stroke-linejoin:miter;stroke-miterlimit:4;stroke-dasharray:none;stroke-opacity:1"
       d="M 89.990234,53.707031 A 36,36 0 0 1 54,89.5 36,36 0 0 1 18.009766,53.792969 36,36 0 0 0 18,54 36,36 0 0 0 54,90 36,36 0 0 0 90,54 36,36 0 0 0 89.9902,53.707031 Z"
       id="circle-edge-bottom"
       inkscape:connector-curvature="0" />
    <path
       style="opacity:1;fill:#ffffff;fill-opacity:0.2;fill-rule:nonzero;stroke:none;stroke-width:1.54617035;stroke-linecap:round;stroke-linejoin:miter;stroke-miterlimit:4;stroke-dasharray:none;stroke-opacity:1"
       d="M 54,18 A 36,36 0 0 0 18,54 36,36 0 0 0 18.0098,54.292969 36,36 0 0 1 54,18.5 36,36 0 0 1 89.990234,54.207031 36,36 0 0 0 90,54 36,36 0 0 0 54,18 Z"
       id="circle-edge-top"
       inkscape:connector-curvature="0" />
    <g
       id="circle-clip-group"
       clip-path="url(#clipPath843)">
      <path
         id="search-edge-bottom"
         style="fill:#000000;fill-opacity:0.2;fill-rule:evenodd;stroke:none;stroke-width:1px;stroke-linecap:butt;stroke-linejoin:miter;stroke-opacity:1"
         d="m 48.5,38.599609 c -5.478,0 -9.900391,4.422391 -9.900391,9.900391 0,0.168884 0.01708,0.333222 0.02539,0.5 0.26115,-5.24291 4.565884,-9.400391 9.875,-9.400391 5.309116,0 9.61385,4.157481 9.875,9.400391 0.0083,-0.166778 0.02539,-0.331116 0.02539,-0.5 0,-5.478 -4.422391,-9.900391 -9.900391,-9.900391 z M 34.212891,49 c -0.0057,0.166206 -0.01367,0.3324 -0.01367,0.5 0,7.898 6.402781,14.300781 14.300781,14.300781 3.542,0 6.798641,-1.299078 9.306641,-3.455078 l 0.59375,0.617188 v -1 l -0.59375,-0.617188 C 55.298641,61.501703 52.042,62.800781 48.5,62.800781 40.7696,62.800781 34.476671,56.666092 34.212891,49 Z m 28.576171,0.0293 c -0.122515,3.336185 -1.395394,6.395017 -3.443359,8.777344 l 0.447266,0.43164 C 61.67375,55.814248 62.800781,52.783883 62.800781,49.5 c 0,-0.15777 -0.0066,-0.314166 -0.01172,-0.470703 z m -4.388671,12.669922 v 1 l 11,10.978515 3.277343,-3.277343 L 72.678,69.4 69.400391,72.677734 Z"
         sodipodi:nodetypes="sscscsscssccccsccccscccccccc" />
      <path
         inkscape:connector-curvature="0"
         d="M 61.7,58.4 H 59.962 L 59.346,57.806 C 61.502,55.298 62.8,52.042 62.8,48.5 c 0,-7.898 -6.402,-14.3 -14.3,-14.3 -7.898,0 -14.3,6.402 -14.3,14.3 0,7.898 6.402,14.3 14.3,14.3 3.542,0 6.798,-1.298 9.306,-3.454 L 58.4,59.962 V 61.7 l 11,10.978 3.278,-3.278 z m -13.2,0 c -5.478,0 -9.9,-4.422 -9.9,-9.9 0,-5.478 4.422,-9.9 9.9,-9.9 5.478,0 9.9,4.422 9.9,9.9 0,5.478 -4.422,9.9 -9.9,9.9 z"
         id="search"
         style="fill:#ffffff;fill-opacity:1;stroke:none;stroke-width:2.09999967;filter:url(#filter849)"
         sodipodi:nodetypes="csccssssscc" />
      <rect
         style="opacity:1;fill:url(#radialGradient876);fill-opacity:1;fill-rule:nonzero;stroke:none;stroke-width:3.77952766;stroke-linecap:round;stroke-linejoin:miter;stroke-miterlimit:4;stroke-dasharray:none;stroke-opacity:1"
         id="light"
         width="108"
         height="108"
         x="0"
         y="0" />
    </g>
  </g>
</svg>
